<?xml version="1.0" encoding="UTF-8"?>
<svg id="Layer_2" data-name="Layer 2" xmlns="http://www.w3.org/2000/svg" viewBox="2.76 15.0 42.48 15.96">
  <defs>
    <style>
      .cls-1 {
        fill: #fff;
      }

      .cls-2 {
        fill: #003256;
      }
    </style>
  </defs>
  <g id="Layer_1_copy" data-name="Layer 1 copy">
    <g>
      <rect class="cls-1" width="48" height="48"/>
      <g>
        <polygon class="cls-2" points="6.82 18.89 6.82 21.34 11.01 21.34 11.01 24.58 6.82 24.58 6.82 30.35 3 30.35 3 15.65 11.44 15.65 11.44 18.89 6.82 18.89"/>
        <rect class="cls-2" x="28.06" y="15.65" width="3.82" height="14.7"/>
        <path class="cls-2" d="m45,20.58c-.78-1.05-2.05-1.62-3.35-1.62-2.34,0-3.92,1.79-3.92,4.07s1.6,4,3.98,4c1.25,0,2.5-.6,3.3-1.56v4.58c-1.27.39-2.18.68-3.37.68-2.05,0-4-.78-5.52-2.16-1.62-1.46-2.36-3.37-2.36-5.56,0-2.01.76-3.94,2.16-5.38,1.44-1.48,3.53-2.38,5.6-2.38,1.23,0,2.36.27,3.49.74v4.58Z"/>
        <path class="cls-2" d="m18.73,15.65h-5.42v14.7h5.42c4.07,0,7.47-3.22,7.47-7.35s-3.37-7.35-7.47-7.35Zm-.74,11.46h-.86v-8.23h.9c2.46,0,4.19,1.48,4.19,4.11,0,2.87-1.95,4.11-4.23,4.11Z"/>
      </g>
    </g>
  </g>
</svg>